<mxfile host="Electron" modified="2024-10-17T09:03:13.129Z" agent="Mozilla/5.0 (Windows NT 10.0; Win64; x64) AppleWebKit/537.36 (KHTML, like Gecko) draw.io/23.1.5 Chrome/120.0.6099.109 Electron/28.1.0 Safari/537.36" etag="u60xWy920MBxUQTj01zW" version="23.1.5" type="device">
  <diagram name="Strona-1" id="CQX7ITbuCMDlfm-jjHpQ">
    <mxGraphModel dx="1985" dy="1029" grid="1" gridSize="10" guides="1" tooltips="1" connect="1" arrows="1" fold="1" page="1" pageScale="1" pageWidth="3300" pageHeight="4681" math="0" shadow="0">
      <root>
        <mxCell id="0" />
        <mxCell id="1" parent="0" />
        <mxCell id="lVBH4ogiTQdTNqr8ziit-1" value="" style="ellipse;whiteSpace=wrap;html=1;" parent="1" vertex="1">
          <mxGeometry x="510" y="160" width="120" height="80" as="geometry" />
        </mxCell>
        <mxCell id="lVBH4ogiTQdTNqr8ziit-2" value="" style="endArrow=classic;html=1;rounded=0;entryX=0.2;entryY=0.96;entryDx=0;entryDy=0;entryPerimeter=0;exitX=0.2;exitY=0.96;exitDx=0;exitDy=0;exitPerimeter=0;" parent="1" source="lVBH4ogiTQdTNqr8ziit-1" edge="1">
          <mxGeometry width="50" height="50" relative="1" as="geometry">
            <mxPoint x="680" y="320" as="sourcePoint" />
            <mxPoint x="440" y="330" as="targetPoint" />
            <Array as="points">
              <mxPoint x="530" y="240" />
            </Array>
          </mxGeometry>
        </mxCell>
        <mxCell id="lVBH4ogiTQdTNqr8ziit-3" value="" style="ellipse;whiteSpace=wrap;html=1;" parent="1" vertex="1">
          <mxGeometry x="380" y="330" width="120" height="80" as="geometry" />
        </mxCell>
        <mxCell id="lVBH4ogiTQdTNqr8ziit-4" value="" style="ellipse;whiteSpace=wrap;html=1;" parent="1" vertex="1">
          <mxGeometry x="230" y="480" width="120" height="80" as="geometry" />
        </mxCell>
        <mxCell id="lVBH4ogiTQdTNqr8ziit-5" value="" style="ellipse;whiteSpace=wrap;html=1;" parent="1" vertex="1">
          <mxGeometry x="550" y="480" width="120" height="80" as="geometry" />
        </mxCell>
        <mxCell id="lVBH4ogiTQdTNqr8ziit-6" value="" style="endArrow=classic;html=1;rounded=0;" parent="1" target="lVBH4ogiTQdTNqr8ziit-4" edge="1">
          <mxGeometry width="50" height="50" relative="1" as="geometry">
            <mxPoint x="400" y="400" as="sourcePoint" />
            <mxPoint x="350" y="450" as="targetPoint" />
            <Array as="points" />
          </mxGeometry>
        </mxCell>
        <mxCell id="lVBH4ogiTQdTNqr8ziit-7" value="" style="endArrow=classic;html=1;rounded=0;" parent="1" target="lVBH4ogiTQdTNqr8ziit-5" edge="1">
          <mxGeometry width="50" height="50" relative="1" as="geometry">
            <mxPoint x="489" y="394" as="sourcePoint" />
            <mxPoint x="410" y="480" as="targetPoint" />
            <Array as="points" />
          </mxGeometry>
        </mxCell>
        <mxCell id="lVBH4ogiTQdTNqr8ziit-8" value="15" style="text;html=1;align=center;verticalAlign=middle;whiteSpace=wrap;rounded=0;" parent="1" vertex="1">
          <mxGeometry x="540" y="185" width="60" height="30" as="geometry" />
        </mxCell>
        <mxCell id="lVBH4ogiTQdTNqr8ziit-9" value="9" style="text;html=1;align=center;verticalAlign=middle;whiteSpace=wrap;rounded=0;" parent="1" vertex="1">
          <mxGeometry x="410" y="355" width="60" height="30" as="geometry" />
        </mxCell>
        <mxCell id="lVBH4ogiTQdTNqr8ziit-10" value="11" style="text;html=1;align=center;verticalAlign=middle;whiteSpace=wrap;rounded=0;" parent="1" vertex="1">
          <mxGeometry x="580" y="505" width="60" height="30" as="geometry" />
        </mxCell>
        <mxCell id="lVBH4ogiTQdTNqr8ziit-11" value="7" style="text;html=1;align=center;verticalAlign=middle;whiteSpace=wrap;rounded=0;" parent="1" vertex="1">
          <mxGeometry x="260" y="505" width="60" height="30" as="geometry" />
        </mxCell>
        <mxCell id="lVBH4ogiTQdTNqr8ziit-12" value="" style="ellipse;whiteSpace=wrap;html=1;" parent="1" vertex="1">
          <mxGeometry x="730" y="250" width="120" height="80" as="geometry" />
        </mxCell>
        <mxCell id="lVBH4ogiTQdTNqr8ziit-13" value="" style="endArrow=classic;html=1;rounded=0;exitX=0.96;exitY=0.8;exitDx=0;exitDy=0;exitPerimeter=0;" parent="1" source="lVBH4ogiTQdTNqr8ziit-1" edge="1">
          <mxGeometry width="50" height="50" relative="1" as="geometry">
            <mxPoint x="690" y="320" as="sourcePoint" />
            <mxPoint x="740" y="270" as="targetPoint" />
          </mxGeometry>
        </mxCell>
        <mxCell id="lVBH4ogiTQdTNqr8ziit-17" value="" style="ellipse;whiteSpace=wrap;html=1;" parent="1" vertex="1">
          <mxGeometry x="620" y="370" width="120" height="80" as="geometry" />
        </mxCell>
        <mxCell id="lVBH4ogiTQdTNqr8ziit-18" value="" style="endArrow=classic;html=1;rounded=0;entryX=1;entryY=0;entryDx=0;entryDy=0;exitX=0.287;exitY=1.015;exitDx=0;exitDy=0;exitPerimeter=0;" parent="1" source="lVBH4ogiTQdTNqr8ziit-12" target="lVBH4ogiTQdTNqr8ziit-17" edge="1">
          <mxGeometry width="50" height="50" relative="1" as="geometry">
            <mxPoint x="680" y="330" as="sourcePoint" />
            <mxPoint x="630" y="380" as="targetPoint" />
          </mxGeometry>
        </mxCell>
        <mxCell id="lVBH4ogiTQdTNqr8ziit-19" value="16" style="text;html=1;align=center;verticalAlign=middle;whiteSpace=wrap;rounded=0;" parent="1" vertex="1">
          <mxGeometry x="650" y="395" width="60" height="30" as="geometry" />
        </mxCell>
        <mxCell id="lVBH4ogiTQdTNqr8ziit-20" value="" style="ellipse;whiteSpace=wrap;html=1;" parent="1" vertex="1">
          <mxGeometry x="90" y="640" width="120" height="80" as="geometry" />
        </mxCell>
        <mxCell id="lVBH4ogiTQdTNqr8ziit-21" value="" style="endArrow=classic;html=1;rounded=0;" parent="1" target="lVBH4ogiTQdTNqr8ziit-20" edge="1">
          <mxGeometry width="50" height="50" relative="1" as="geometry">
            <mxPoint x="260" y="550" as="sourcePoint" />
            <mxPoint x="210" y="600" as="targetPoint" />
          </mxGeometry>
        </mxCell>
        <mxCell id="lVBH4ogiTQdTNqr8ziit-22" value="5" style="text;html=1;align=center;verticalAlign=middle;whiteSpace=wrap;rounded=0;" parent="1" vertex="1">
          <mxGeometry x="120" y="670" width="60" height="30" as="geometry" />
        </mxCell>
        <mxCell id="TJ1NJor1KkkfdyacRjPx-2" value="17" style="text;html=1;align=center;verticalAlign=middle;whiteSpace=wrap;rounded=0;" parent="1" vertex="1">
          <mxGeometry x="760" y="275" width="60" height="30" as="geometry" />
        </mxCell>
        <mxCell id="CHivp9WOKUWgl7GMNZ2n-1" value="" style="ellipse;whiteSpace=wrap;html=1;" vertex="1" parent="1">
          <mxGeometry x="720" y="610" width="120" height="80" as="geometry" />
        </mxCell>
        <mxCell id="CHivp9WOKUWgl7GMNZ2n-2" value="12" style="text;html=1;align=center;verticalAlign=middle;whiteSpace=wrap;rounded=0;" vertex="1" parent="1">
          <mxGeometry x="750" y="635" width="60" height="30" as="geometry" />
        </mxCell>
        <mxCell id="CHivp9WOKUWgl7GMNZ2n-3" value="" style="endArrow=classic;html=1;rounded=0;entryX=0;entryY=0;entryDx=0;entryDy=0;exitX=1;exitY=1;exitDx=0;exitDy=0;" edge="1" parent="1" source="lVBH4ogiTQdTNqr8ziit-5" target="CHivp9WOKUWgl7GMNZ2n-1">
          <mxGeometry width="50" height="50" relative="1" as="geometry">
            <mxPoint x="430" y="560" as="sourcePoint" />
            <mxPoint x="480" y="510" as="targetPoint" />
            <Array as="points" />
          </mxGeometry>
        </mxCell>
        <mxCell id="CHivp9WOKUWgl7GMNZ2n-4" value="" style="ellipse;whiteSpace=wrap;html=1;" vertex="1" parent="1">
          <mxGeometry x="440" y="600" width="120" height="80" as="geometry" />
        </mxCell>
        <mxCell id="CHivp9WOKUWgl7GMNZ2n-5" value="" style="endArrow=classic;html=1;rounded=0;entryX=1;entryY=0;entryDx=0;entryDy=0;exitX=0.19;exitY=0.999;exitDx=0;exitDy=0;exitPerimeter=0;" edge="1" parent="1" source="lVBH4ogiTQdTNqr8ziit-5" target="CHivp9WOKUWgl7GMNZ2n-4">
          <mxGeometry width="50" height="50" relative="1" as="geometry">
            <mxPoint x="430" y="710" as="sourcePoint" />
            <mxPoint x="480" y="660" as="targetPoint" />
          </mxGeometry>
        </mxCell>
        <mxCell id="CHivp9WOKUWgl7GMNZ2n-7" value="10" style="text;html=1;align=center;verticalAlign=middle;whiteSpace=wrap;rounded=0;" vertex="1" parent="1">
          <mxGeometry x="470" y="625" width="60" height="30" as="geometry" />
        </mxCell>
      </root>
    </mxGraphModel>
  </diagram>
</mxfile>
